#!OML:ASF F:\VICON\USERDATA\INSTALL\rory3\rory3.ASF
:FULLY-SPECIFIED
:DEGREES
51
root 0.6318613907384302 17.80937832773843 14.096896780609377 -3.771186915672721 0.07189758981864658 -6.344473197233052
lfemur -21.03157661362056 -0.5372341911396943 -15.579835167900196
ltibia 39.835710346828236
lfoot -16.07154291006096 -5.455209828752307
ltoes -7.006628563289537
rfemur -1.3652432519897495 3.3892343972915278 30.825376979580327
rtibia 26.847293404280485
rfoot 0.8864956733465359 -9.292373147428378
rtoes 12.854623070120201
lowerback 11.346988379290275 2.0506525534594697 4.747581018250997
upperback 0.05195700010145282 3.571518746661495 1.952804247532049
thorax -6.09386587689345 1.5458283606620573 -1.8650760240751576
lowerneck -16.54888605821888 -3.3947086720764825 -1.5237799655232236
upperneck 21.60579159183844 -4.620549473073753 1.4909174752030696
head 9.747201212575515 -2.1254632330390795 0.1892583975663637
lclavicle -2.700307951779038e-15 -2.151714706229633e-15
lhumerus -26.815990837478044 1.3496953090065085 81.23129185140725
lradius 26.85766550321021
lwrist 11.091018727878541
lhand -29.73337972033577 18.22547611345302
lfingers 7.125020000000001
lthumb -3.086722956633566 48.355259811645006
rclavicle -2.700307951774721e-15 -2.151714706226184e-15
rhumerus -28.257752082134324 -16.935942664615016 -78.35722564870743
rradius 25.663582282875524
rwrist 5.956956108615434
rhand -17.807699083504076 21.678478190373337
rfingers 7.125020000000001
rthumb 8.829246531726062 -8.315899635636601
52
root 0.6580474446747504 17.820834542591392 15.363404895602095 -3.847971332815394 0.4937373728236566 -5.831960118072603
lfemur -20.139720176041003 -0.9127701082214841 -16.500088784489353
ltibia 36.39500199005235
lfoot -16.242298084086553 -5.110686800430759
ltoes -4.508279154643445
rfemur -1.3027909332193666 3.2622257123231093 30.135787194043335
rtibia 28.214701841350134
rfoot 0.9921074342317926 -9.600232303242437
rtoes 11.886126470694629
lowerback 11.258238823035601 1.9777583870818807 4.354469978803242
upperback 0.06463191908888463 3.3768544955784865 1.8210289340471413
thorax -6.011549458883837 1.489240140566911 -1.7926084028993174
lowerneck -16.578339670885914 -3.3926269396919144 -1.528966968779538
upperneck 21.68047737367294 -4.595486413038002 1.399647058220359
head 9.819879686586782 -2.1134135801634955 0.14989642025881067
lclavicle -2.7003079517824583e-15 -2.1517147062322808e-15
lhumerus -25.781340833820035 0.9142600831672656 81.01992157792273
lradius 27.650715346940288
lwrist 10.810174383238977
lhand -29.838868187579706 18.582475609428815
lfingers 7.125020000000001
lthumb -3.1619369331074996 48.8239686382168
rclavicle -2.700307951772775e-15 -2.1517147062251447e-15
rhumerus -28.678639008363117 -17.03813360115623 -78.45984852309105
rradius 25.506099339780835
rwrist 5.677527416751982
rhand -17.823376136335185 21.753892782858454
rfingers 7.125020000000001
rthumb 8.828863950858993 -8.30910721755929
53
root 0.6954689195060638 17.84253883284018 16.790103476495872 -3.8040517591495346 1.0441063065109808 -5.346472369414332
lfemur -19.13872050718487 -1.4821568659151778 -17.373964218123366
ltibia 33.05360157716409
lfoot -16.148607859735577 -4.45128812534526
ltoes -4.856814553686226
rfemur -1.266551620308542 3.1406342451243736 29.606158405271138
rtibia 29.347864019980424
rfoot 1.0889862733038012 -9.945276237731722
rtoes 11.766588708550403
lowerback 11.057635533687248 1.899841040207187 4.113101227339649
upperback 0.023781367966941663 3.1995233451615244 1.7128978241973234
thorax -5.949434803654217 1.4402417387574054 -1.7301185166466526
lowerneck -16.62393314199729 -3.38924446465419 -1.5081084231212962
upperneck 21.727687348416755 -4.601323674994898 1.3086684889536935
head 9.880434266198554 -2.1166737790443544 0.09992952548753942
lclavicle -2.700307951780893e-15 -2.1517147062313148e-15
lhumerus -24.755208548160557 0.6892733897618952 80.84352031971396
lradius 28.58120802001971
lwrist 10.618064418460039
lhand -29.812391230602824 18.5761508501501
lfingers 7.125020000000001
lthumb -3.1409347501123275 48.84404726666457
rclavicle -2.700307951777804e-15 -2.1517147062285747e-15
rhumerus -29.132515550464497 -17.25297842281409 -78.61099699486097
rradius 25.442333682822454
rwrist 5.754916747174688
rhand -17.809527662608083 21.829488863505617
rfingers 7.125020000000001
rthumb 8.790549803229442 -8.292061271607121
54
root 0.7261802606996608 17.86165876462496 17.865846386161067 -3.7519642992821103 1.4364199257916943 -4.891189716519378
lfemur -17.83585678680997 -1.9652510946340087 -18.12070256861796
ltibia 30.23421835684722
lfoot -16.05422835081073 -3.6895071748289627
ltoes -11.209493632814056
rfemur -1.585332815701019 2.9639857548807567 29.06981039845664
rtibia 30.372573856741212
rfoot 1.2485023557587738 -10.230488479207326
rtoes 11.778417545793383
lowerback 10.933826239893254 1.7803724192874057 3.7197037139015903
upperback -0.05047909762801652 3.020065871371724 1.6409410374569808
thorax -5.988605585147684 1.3417056236133615 -1.780199821055089
lowerneck -16.53891935908591 -3.389568279602166 -1.5225181754793013
upperneck 21.70740868815099 -4.586770719539994 1.234352545485452
head 9.836453678821563 -2.119232399039738 0.0852436216492207
lclavicle -2.7003079517853613e-15 -2.1517147062344036e-15
lhumerus -24.126177826446927 0.11378226956928916 80.59838197541272
lradius 29.448834638968485
lwrist 10.521717259859397
lhand -29.874879895721293 18.87779597650451
lfingers 7.125020000000001
lthumb -3.1597136103017887 49.25942278963224
rclavicle -2.7003079517822343e-15 -2.1517147062317487e-15
rhumerus -29.310005076758987 -17.44053839115991 -78.765096072803
rradius 25.35817206722054
rwrist 5.743196308025499
rhand -17.760507705615986 21.990175831959775
rfingers 7.125020000000001
rthumb 8.976410868031868 -7.829219871483997
